<svg version="1.1" xmlns="http://www.w3.org/2000/svg" viewBox="0 0 1078.7609812903024 292.83331298828125" width="3236.2829438709073" height="878.4999389648438">
  <!-- svg-source:excalidraw -->
  
  <defs>
    <style>
      @font-face {
        font-family: "Virgil";
        src: url("https://excalidraw.com/Virgil.woff2");
      }
      @font-face {
        font-family: "Cascadia";
        src: url("https://excalidraw.com/Cascadia.woff2");
      }
    </style>
  </defs>
  <g transform="translate(43.32860824342754 10) rotate(0 70.8038330078125 70.8038330078125)"><path d="M27.556126188455366 14.679084087772978 C27.556126188455366 14.679084087772978, 27.556126188455366 14.679084087772978, 27.556126188455366 14.679084087772978 M27.556126188455366 14.679084087772978 C27.556126188455366 14.679084087772978, 27.556126188455366 14.679084087772978, 27.556126188455366 14.679084087772978 M10.649296994249305 41.56983434138077 C17.21384645330334 31.79407321165281, 27.304025557146623 17.943423370365174, 37.82369456052801 9.570542997651792 M9.184523872028073 41.506451600316936 C17.79656423956812 32.25690063613989, 25.943764532714063 23.175775667239886, 38.55835989102742 8.600711534702278 M7.225084674021385 50.737356849872654 C21.580277422161885 33.15887575313424, 34.965900917817955 19.798219819349484, 42.20245029277602 7.247750799818071 M7.929813214054487 50.68871278774101 C18.608724397494345 37.248578552515056, 29.59779909594116 25.19404261467281, 43.25718720130125 8.453062221123012 M4.0891032497895665 57.098459985805945 C13.978423758562151 47.07742662650954, 28.680365011301223 33.4710339606494, 50.34751743438564 7.162901914827984 M4.629192674489111 59.75507965753813 C15.438567493517585 45.76158837450175, 25.2567658812391 35.594660357947674, 50.53991854178629 6.556757251881521 M1.776073859919343 66.79711580958288 C17.405640297626217 52.473565120214346, 28.841671842230422 37.92004314189469, 55.879936565741346 7.9459500635293026 M4.49353085263494 67.16361118417304 C18.206552593829702 51.17570939134884, 31.87340561749182 32.97303379796368, 55.66858570380454 5.828493511888077 M4.6255961137857255 72.64606846182843 C17.504754794863477 54.69158241034699, 35.33872540784051 35.53939151804525, 61.94380382520866 4.881492306324258 M1.9096685688044843 74.1075446723332 C21.60929236587502 53.793219653077244, 39.5656702762017 32.41068442375772, 63.174369786659 3.5310174756074098 M4.500325178744717 78.11270542272209 C18.98063849268279 61.910358705913566, 32.71168186180555 43.1205445978429, 67.67597576418156 3.932316944283386 M3.5335959512912467 79.12616701626061 C27.122301637879644 52.64057180162216, 48.321577219049075 25.762614726665156, 68.70230605268115 3.9216731081725555 M6.599617606190314 84.09731499333438 C19.807384537472284 67.53167482019924, 35.45028884559222 47.67725881334565, 73.23636449203504 4.215855618031696 M5.479098262426724 83.5080721810883 C24.019860958476407 61.78034822207411, 42.4914493496234 40.68138235200637, 75.4165790721835 3.353853964271025 M5.8337674475165 88.16424797473583 C25.679826213749706 62.47898321601636, 45.67636024536705 42.03493040071189, 79.5897605891536 2.518312048416952 M7.0669920145424 87.14732288194928 C27.905395464246673 61.823799737427564, 48.80548975909397 37.90776353869304, 79.15734563648803 3.41613192881308 M6.542183341088773 92.52778892732871 C33.575486359447055 62.49741191919806, 64.95270160425008 29.04943318720691, 84.88006922289325 4.525823715618621 M7.918302056941272 93.15432184330834 C27.714948842450447 71.11549679880679, 48.90800539304195 46.212898571542794, 84.18997087388827 4.788418896040689 M9.619152396282146 97.32099449173798 C41.36488721224341 59.83104852447943, 70.66808936581178 25.491036953219535, 86.900015002629 6.848009760261689 M8.455025459935854 97.74965011985292 C33.219270923722135 70.07394301617671, 56.92359717816527 41.44748023543461, 87.04973310469671 5.890514670641338 M11.575958251462112 101.33627422836588 C40.869700216831774 63.802519515417686, 74.01633053332259 28.361653894794728, 94.15326003773585 5.758551822971171 M10.337249572829137 101.62964793604777 C41.73702321868855 66.40172083157981, 72.87549646072159 30.654738650529396, 92.97894189922586 8.24768780730254 M11.666644958022673 107.29422893828297 C43.80393677406151 70.00416506296165, 73.02863051691652 33.7329682052825, 95.60440393758878 7.445194044372052 M10.963915907952625 105.86025300702596 C36.210540167861524 76.43507202723009, 64.01360571974365 45.37796541986185, 97.05193807778821 9.365675610711783 M15.542548241300842 109.30126444122317 C37.090780873200245 81.4757290622676, 62.13942106423193 53.141373859562286, 102.42898381156282 10.259743065089346 M14.502351401580832 109.9596143165839 C39.54956229176898 80.74908089033718, 66.51651479809547 49.98917137540703, 101.30009371069626 9.60568413555658 M15.817469094709601 113.66552569870251 C40.45320868366845 83.97675605010937, 68.00743354862465 54.08421266306635, 105.76347426903294 10.968068025748046 M15.828442008064236 113.33902624030011 C35.69627764386435 91.17906538993796, 54.313749031870415 69.41041032814019, 105.83681211826251 11.059388186524423 M19.002500185604966 114.5809626909005 C48.92291244806772 80.33502334452524, 78.35444871721803 46.90573188009165, 109.14316936139315 12.509519727418692 M18.836459105696356 115.61199442241663 C42.00303494529844 89.72133011993587, 64.99459439330319 62.1332951390604, 108.67040981281846 13.933350478748352 M20.69543556538092 119.92442621888767 C57.02609462355158 77.19338770878757, 88.00610509531751 41.199665692431154, 110.18853675599945 17.718673150280743 M23.003469206808674 119.01633157806646 C47.314308249866244 90.6800683637006, 74.24899788036916 60.97509589918765, 110.76547067265761 16.895764156470328 M24.579242901393457 119.46799126284347 C58.644492507178256 78.21421995162916, 96.51687164227063 38.78890059997708, 114.41886356222683 20.1035849349592 M25.762806189694686 121.25148085149155 C47.440517984296704 93.56770341113709, 71.85238995196318 67.37650509706529, 115.23149176809245 18.47971027437785 M26.92359124503659 125.16663362383846 C46.86279786975517 101.52474583080519, 66.28916684742777 81.7604722901315, 118.31437438945032 20.586374222079073 M28.380599066685903 124.39119245782499 C60.05928855330497 87.09049409044206, 94.3824525420235 48.09579007517132, 117.76000141943551 20.448738637158428 M30.927264234675825 128.12526286227484 C53.894953679032724 100.90679954952583, 76.81871825651292 73.96543811784208, 119.0662313470449 25.75322265226535 M29.67318518708533 128.47555662153144 C57.93005111498319 95.91654124134207, 83.33091148416011 66.86901575197481, 119.74955919699927 24.67186779949955 M35.15604203766716 130.35814145833208 C57.57629453101513 99.16463751038489, 84.40319499691611 70.43001202461733, 124.32653404438558 26.10437436614302 M33.81999217918647 129.8954227368529 C59.48741250749802 98.4323810069317, 85.59748074589439 69.54490903121606, 123.43075592109624 25.998585066088708 M36.01240620540459 130.81243271308074 C57.92970237134607 110.8535900957337, 77.2358570364887 85.14719502632835, 125.95831959084734 30.30413600433711 M36.20824280532081 132.04094726892242 C64.8433745857969 100.51466812780856, 92.53444275886906 68.98765233231843, 126.99121366203889 29.133846491613426 M42.07795287625362 134.33523368692303 C76.5668396101012 94.19277216391532, 111.16302255065364 53.37673782223874, 129.1295035668147 32.18558628769536 M41.15036816479136 132.89362669220472 C60.616987247590416 111.55181649072519, 79.2705918624165 88.92106628535305, 129.04452671114925 32.26778646098394 M43.927038601608245 134.4518326809295 C73.42471272045452 103.87259766673189, 99.95440629336284 69.12361646385258, 132.03105711065314 34.736447276620034 M45.07265351992962 134.42955497183283 C78.34266613813739 95.02555185806965, 113.25668469892969 55.73619942794767, 131.7234386677303 35.686588948665026 M47.813134519833945 135.0874517555024 C74.85439621689994 103.72396153901853, 102.82910382446363 74.60594252218627, 133.00277080274716 39.36792269195889 M49.576592470038555 136.9661660822715 C74.23907124717793 107.4811312205764, 100.03664105603161 76.90161135808101, 133.18060632310406 39.66632583956693 M50.79459024030575 139.83608505126665 C79.84236860132336 105.78852362429703, 108.4366418320206 75.73629428246873, 134.9074907814623 45.145859594114135 M51.93965083543071 139.0560723282082 C74.5081231965195 112.54732623951134, 96.47149420868999 86.81518539968695, 135.3378357765735 44.32911860815437 M55.14069287239865 141.45578920884736 C84.23464191609459 107.14648251220846, 110.18425734372866 75.77088347845859, 136.91294165617353 49.304877123710796 M56.89632568641857 139.60735476433047 C78.65363172550087 114.76601441685924, 100.39017741218909 88.98771960245799, 137.0429053484512 48.78226705911486 M58.081667025487654 144.11868336886945 C89.43111287186599 107.45529566854805, 116.13902655227153 74.25593885849187, 136.89778553625584 52.74365692137387 M59.76314534331464 142.75856319532576 C86.29369684230355 109.26330516974195, 114.84012967053606 76.45074588833427, 137.85062460904956 53.2385397471359 M64.18291092490975 142.64211085106686 C85.76081424040727 118.25457423869082, 104.86463198542893 95.4105295926037, 141.20162203108424 58.274943127728335 M66.18790549239341 141.73487785499051 C81.8003549003241 123.638503220665, 98.40159778115436 105.62860071057544, 139.14783437868113 55.89117397690498 M70.56622903508747 142.54986369717847 C87.48410437839779 122.58671330158725, 102.95935550956278 102.81535102772264, 143.03104727902425 60.12083280317645 M72.74590180901492 141.5343339491261 C93.94442155192806 115.89405480407704, 114.15224849572266 92.11920425310177, 141.9344657566489 59.034166222886846 M79.15677652337678 138.24682938738368 C98.12062378462795 116.9999721129812, 111.96321404750316 98.21537703281973, 146.24147686046035 64.42690466856595 M78.56187442147262 139.72746837197445 C102.0739278845061 111.7170757428105, 127.30518621166262 82.34074086432476, 143.9803630342749 64.20140086999174 M83.21640994117165 139.57079622275307 C101.9728352280664 117.50463482134046, 123.81308484160708 93.7503021274769, 141.77502773981502 69.02163826563574 M83.218358592098 139.6341250886686 C100.90759757139908 119.13911000247413, 119.06233376824389 98.44634943795583, 143.63816563691904 70.55106937402107 M90.34215945582815 136.00477668346613 C112.6622813747745 114.0415188988192, 129.9051589593248 88.6147835402702, 142.59534467141577 79.10047983389693 M89.12915694918462 137.16077849345058 C109.25135436473776 114.49681839535985, 130.08416143895846 91.31317219911449, 142.1531345298464 77.17473613854843 M93.65563856075921 138.47410323103887 C110.3670554361444 121.28427069836252, 123.04286427919402 105.44934935721994, 143.59671476463762 84.79648601397452 M94.1037491970829 139.22262921189886 C106.84299070990798 123.55157691386373, 119.88266467834868 109.25624722551723, 140.94726678336946 85.29298221826133 M104.64240174221645 132.23810796320032 C115.147491131717 123.22893051966629, 125.79223661041675 111.2343986988736, 140.01012651289355 94.6756142673846 M105.56164978298197 133.260283755805 C112.74326440316419 124.57251104446257, 120.75642375960896 115.11036483632813, 137.4003546018387 94.37569573873837 M116.48400559084693 125.6159578161047 C117.66602806400778 123.41155635130647, 120.54037463311441 121.13001956722404, 123.71065527429931 116.28155399245075 M115.67505681229959 126.24946855713735 C119.33734449884223 122.20316695142634, 122.72334824482797 118.97937435781972, 124.24477036880457 116.95128085539542" stroke="#228be6" stroke-width="0.5" fill="none"></path><path d="M41.43975372243038 7.297455834750039 C50.15806017885086 2.204752346365357, 62.02570549027102 0.2943027306013152, 72.40986375618942 0.5369913715057777 C82.79402202210782 0.7796800124102402, 94.49658938649233 3.660268969242245, 103.7447033179408 8.753587680176814 C112.99281724938928 13.846906391111382, 121.59845670225073 22.330917481387402, 127.89854734488028 31.096903637113193 C134.19863798750984 39.862889792838985, 139.97188324508497 50.8135812655878, 141.5452471737181 61.34950461453155 C143.11861110235125 71.8854279634753, 140.74703941279424 84.43828494186482, 137.33873091667908 94.31244373077566 C133.93042242056393 104.18660251968649, 128.60543849929198 113.39644411924232, 121.09539619702713 120.59445734799658 C113.58535389476228 127.79247057675084, 102.49193624879273 133.98390736381648, 92.27847710308994 137.5005231033012 C82.06501795738716 141.0171388427859, 70.29159780332913 143.38482837936562, 59.8146413228104 141.69415178490485 C49.33768484229169 140.00347519044408, 37.937034125202736 133.69326195136227, 29.416738219977645 127.35646353653667 C20.896442314752555 121.01966512171104, 13.534339455583758 112.96166049544544, 8.69286589145986 103.67336129595114 C3.8513923273359607 94.38506209645683, 0.49680658735627736 82.20308808864138, 0.367896835234248 71.62666833957081 C0.23898708311221858 61.050248590500246, 3.3405900686962147 49.76068693668685, 7.9194073787276835 40.21484280152774 C12.498224688759151 30.668998666368623, 21.745824044059226 20.259127159940345, 27.840800695423063 14.351603528616117 C33.9357773467869 8.44407989729189, 40.7987475644876 6.492700419703952, 44.4892672869107 4.769701013582377 C48.17978700933381 3.046701607460803, 49.412311488188685 2.785421195656717, 49.98391902996167 4.013607091886669 M42.34942635687042 4.587706184346871 C51.27820419116942 -0.16253847843386726, 63.64031953075431 -0.9603619396676008, 74.5954107951869 -0.31492865500439393 C85.55050205961948 0.3305046296588129, 98.66431355920265 2.8941585671488825, 108.07997394346592 8.460305892326112 C117.49563432772918 14.026453217503342, 125.7710053247303 23.705871975036573, 131.08937310076644 33.08195529605898 C136.4077408768026 42.458038617081385, 139.1080541005238 53.976044389436666, 139.9901805996828 64.71680581846056 C140.8723070988418 75.45756724748445, 140.10452628496273 87.97227248130524, 136.3821320957204 97.52652387020231 C132.65973790647809 107.08077525909938, 125.744726684809 115.02866735416346, 117.65581546422894 122.04231415184296 C109.56690424364888 129.05596094952247, 98.15068613635208 136.5203971625581, 87.84866477224001 139.60840465627933 C77.54664340812795 142.69641215000055, 65.96900530374516 142.68190729121332, 55.84368727955657 140.57035911417032 C45.71836925536798 138.4588109371273, 35.2074161393742 133.47176830106278, 27.096756627108483 126.93911559402136 C18.986097114842767 120.40646288697994, 11.78481089267395 111.28464089384507, 7.179730205962272 101.37444287192181 C2.5746495192505954 91.46424484999856, -0.8798665112252202 78.45130917389709, -0.5337274931615781 67.47792746248189 C-0.18758847509793597 56.50454575106669, 4.077167201551323 44.6208993254047, 9.256564314344125 35.534152603430634 C14.435961427136927 26.447405881456568, 25.073537417516274 17.922110934268492, 30.54265518359523 12.957447130637476 C36.01177294967418 7.99278332700646, 40.003568381619125 6.532381584716469, 42.07127091081785 5.746169781644539 C44.13897344001658 4.95995797857261, 42.33928024065412 7.306372571633041, 42.94887035878759 8.240176312205897" stroke="#1864ab" stroke-width="1" fill="none"></path></g><g transform="translate(10 43.02825927734375) rotate(0 109.5 38)"><text x="109.5" y="53" font-family="Virgil, Segoe UI Emoji" font-size="60.375048828125045px" fill="#1864ab" text-anchor="middle" style="white-space: pre;" direction="ltr">Субъект</text></g><g transform="translate(49.57396957155254 146.96661376953125) rotate(0 77.74594455295139 67.933349609375)"><text x="77.74594455295139" y="47.933349609375014" font-family="Virgil, Segoe UI Emoji" font-size="54.34667968750001px" fill="#000000" text-anchor="middle" style="white-space: pre;" direction="ltr">исх.</text><text x="77.74594455295139" y="115.86669921875003" font-family="Virgil, Segoe UI Emoji" font-size="54.34667968750001px" fill="#000000" text-anchor="middle" style="white-space: pre;" direction="ltr">падеж</text></g><g transform="translate(351.91869613405254 36.912109375) rotate(0 24 38)"><text x="24" y="53" font-family="Virgil, Segoe UI Emoji" font-size="60.375048828125045px" fill="#5c940d" text-anchor="middle" style="white-space: pre;" direction="ltr">di</text></g><g transform="translate(428.11376449342754 36.912109375) rotate(0 19 38)"><text x="19" y="53" font-family="Virgil, Segoe UI Emoji" font-size="60.375048828125045px" fill="#000000" text-anchor="middle" style="white-space: pre;" direction="ltr">+</text></g><g transform="translate(489.30517074342754 50.72900390625) rotate(0 24.18310546875 24.18310546875)"><path d="M20.349015501446736 1.168889129142567 C25.027715662462047 0.23792846247202826, 32.3320341637256 1.6023014249850398, 36.73904222266011 4.112941277808705 C41.14605028159462 6.62358113063237, 45.28880706064757 11.31804018793035, 46.79106385505379 16.23272824608456 C48.293320649460014 21.147416304238767, 47.72575859778717 28.551622545738255, 45.75258298909745 33.60106962673396 C43.779407380407726 38.650516707729665, 39.412667486060386 44.16127899683195, 34.95201020291546 46.52941073205878 C30.491352919770534 48.897542467285604, 24.040487122551507 49.232750328716826, 18.988639290227894 47.80986003809491 C13.936791457904281 46.386969747472996, 7.697820032538409 42.2180273072757, 4.640923208973788 37.992068988327276 C1.584026385409167 33.766110669378854, 0.4139037829727462 27.44300125394097, 0.6472583488401646 22.454110124404373 C0.8806129147075831 17.465218994867776, 2.4659989850174333 11.772834990627238, 6.041050604178299 8.058722211107703 C9.616102223339164 4.344609431588168, 19.089082022189277 1.30023999665781, 22.097568063805358 0.16943344728716525 C25.10605410542144 -0.9613731020834795, 24.0770276352828 0.8255689622543301, 24.091966853874784 1.2738829148838349 M30.970200249321476 0.7039514627888224 C35.67702324364768 2.2103306308269817, 41.47977349910256 8.315307870107993, 44.147770340052034 12.816853843861846 C46.815767181001505 17.3183998176157, 47.44658349663018 22.718598150740256, 46.9781812950183 27.71322730531194 C46.50977909340642 32.70785645988362, 44.96390055358617 39.4733939091866, 41.33735713038074 42.78462877129194 C37.710813707175305 46.095863633397286, 30.44829566911368 47.36745820674119, 25.218920755785692 47.58063647794401 C19.989545842457705 47.79381474914683, 14.193947992781567 47.157542924742145, 9.961107650412806 44.063698398508876 C5.728267308044047 40.96985387227561, 1.2361415554004533 34.19825944389614, -0.1781212984268663 29.01756932054439 C-1.592384152254186 23.836879197192637, -0.8942953231545716 17.611579207031646, 1.475530527448889 12.979557658398367 C3.8453563780523496 8.347536109765088, 9.197737034624055 3.180852969670858, 14.040833805193898 1.225440028744707 C18.883930575763742 -0.729972912181444, 27.648845289178073 1.3457515323801388, 30.534111150867947 1.2470800128414616 C33.419377012557824 1.1484084933027845, 31.199059970919528 0.38601041240319134, 31.352428975333144 0.6334109115126445" stroke="none" stroke-width="0" fill="#000"></path><path d="M35.54510477818212 2.157403007210945 C40.046172157600026 4.011051365541099, 44.5858444826922 8.755169536704184, 46.43409833464237 13.485170217568486 C48.28235218659254 18.21517089843279, 48.16491481958096 25.5538959496176, 46.63462788988312 30.537407092396762 C45.10434096018528 35.52091823517593, 41.52538183481905 40.49658983444839, 37.252376756455334 43.38623707424345 C32.97937167809162 46.275884314038514, 25.969445780000953 48.24520519046401, 20.9965974197008 47.875290531167124 C16.02374905940065 47.505375871870235, 10.789264446526948 44.941079429626015, 7.415286594654432 41.166749118462114 C4.041308742781917 37.39241880729821, 1.30939886483625 30.446555074998727, 0.7527303084657113 25.22930866418373 C0.19606175209517274 20.012062253368732, 1.0031175369580692 14.066259216300136, 4.075275256431201 9.86327065357214 C7.147432975904334 5.660282090844144, 13.372342269459164 0.7644376035154506, 19.185676625304502 0.011377287815754755 C24.99901098114984 -0.7416830278839411, 35.23181315796314 3.905728219761696, 38.95528139150322 5.344908759373965 C42.6787496250433 6.784089298986234, 41.85912155234134 8.32022350864145, 41.526486026545 8.646460525489369 M20.735289064403254 -0.2517466700228823 C25.7977699924192 -1.571598928388575, 34.17081058784309 -0.4623636205494215, 38.62711934421637 2.576679608414821 C43.08342810058964 5.615722837379064, 46.21563580332288 12.780755091299216, 47.47314160264288 17.982512703762573 C48.730647401962884 23.18427031622593, 48.031071143852316 29.29435848213879, 46.17215414013636 33.78722528319496 C44.3132371364204 38.28009208425112, 40.69156054139393 42.70512139824204, 36.31963958034715 44.93971351009958 C31.947718619300367 47.17430562195712, 25.33621323368556 48.2157155609071, 19.94062837385565 47.19477795434018 C14.545043514025739 46.173840347773265, 7.190559436363234 42.837373848697275, 3.946130421367691 38.814087870698074 C0.7017014063721483 34.79080189269887, -0.0011729963793480347 28.14938370789414, 0.474054283882392 23.05506208634497 C0.9492815641441321 17.960740464795805, 3.5068720341007373 12.025423171313028, 6.797494102938131 8.24815814140307 C10.088116171775525 4.470893111493114, 17.786467644888845 1.5032962396206955, 20.217786696906757 0.3914719068852328 C22.64910574892467 -0.7203524258502298, 21.258125836721003 1.0883872065251328, 21.3854084150456 1.5772121449902947" stroke="#000000" stroke-width="4" fill="none"></path></g><g transform="translate(562.0825144934275 36.912109375) rotate(0 19 38)"><text x="19" y="53" font-family="Virgil, Segoe UI Emoji" font-size="60.375048828125045px" fill="#000000" text-anchor="middle" style="white-space: pre;" direction="ltr">+</text></g><g transform="translate(629.7609812903025 36.912109375) rotate(0 219.5 38)"><text x="219.5" y="53" font-family="Virgil, Segoe UI Emoji" font-size="60.375048828125045px" fill="#000000" text-anchor="middle" style="white-space: pre;" direction="ltr">личн. окончания</text></g><g transform="translate(457.97313949342754 105.67425537109375) rotate(0 66.5 76)"><text x="66.5" y="53" font-family="Virgil, Segoe UI Emoji" font-size="60.375048828125045px" fill="#000000" text-anchor="middle" style="white-space: pre;" direction="ltr">кор.</text><text x="66.5" y="129" font-family="Virgil, Segoe UI Emoji" font-size="60.375048828125045px" fill="#000000" text-anchor="middle" style="white-space: pre;" direction="ltr">прош.</text></g></svg>